<svg xmlns="http://www.w3.org/2000/svg" width="388" height="433" viewBox="0 0 388.107 432.89">
  <!-- Okayama Prefecture (岡山県) silhouette -->
  <!-- Source: Wikimedia Commons, File:Map_of_Okayama_Prefecture_Ja.svg -->
  <!-- License: CC BY-SA 3.0, Author: Lincun -->
  <path fill="#4a7c59" d="M 0.129501,375.18273 H 1.7288751 L 0.92918808,372.78368 H 2.5285622 v -1.59938 l 2.3990613,-0.79969 -0.7996871,-4.79811 h 1.5993742 l 1.5993742,4.79811 H 8.1263719 L 7.3266848,363.18743 H 8.926059 l -0.7996871,1.59938 1.5993743,-1.59938 -0.7996872,2.39907 1.599374,-1.59938 v 1.59938 h 1.599374 v 0.79968 l 2.399062,2.39907 -1.599374,0.79968 0.799687,4.79812 v 2.39906 l -3.9984358,0.79969 v 2.39906 l 3.1987488,2.39907 3.198748,-3.19875 1.599375,5.5978 v -0.79968 l 1.599373,1.59938 2.399062,-0.7997 v 1.59938 l 2.399061,-2.39906 0.799687,2.39906 0.799688,-1.59938 3.998435,3.99845 v -1.59938 l 3.198748,0.79968 0.799687,-1.59937 2.399062,1.59937 1.599374,2.39907 -0.799688,2.39906 6.397498,-1.59938 3.998435,-3.19875 v -1.59937 h 1.599375 l -0.799688,-4.79813 1.599375,-10.39593 7.197183,-2.39905 -1.599374,-3.19875 -1.599374,-0.79969 1.599374,-1.59938 8.796558,7.19718 2.399062,-4.79811 -1.599375,-1.59938 v -0.79969 l -7.996871,-5.5978 -0.799687,-1.59938 1.599375,-3.19875 -0.799688,-3.19875 h -4.798122 l -4.798123,-1.59937 4.798123,1.59937 3.998435,-1.59937 2.399062,1.59937 h 6.397496 -5.59781 l -0.799686,7.19718 9.596244,5.59782 0.799687,-9.59625 -0.799687,-4.79812 v -2.39906 l 0.799687,3.19874 3.19875,-7.19718 -0.799688,-3.19875 -2.399062,0.79969 v -2.39906 h 1.599375 l -1.599375,-3.19875 2.399062,-4.79813 -1.599374,-3.99843 -0.799688,-5.5978 -6.397496,-4.79813 -0.799687,-6.3975 H 58.50666 l -4.798123,-3.19874 -1.599374,-6.3975 -2.399061,-2.39906 v -3.19875 l 2.399061,-2.39907 -1.599375,-1.59937 v -3.19875 l 3.198749,-3.19875 1.599374,-7.19718 -6.397496,-3.19875 1.599373,-2.39905 -3.998435,-3.19875 -0.799688,-7.1972 -0.799686,-3.99843 -2.399062,-1.59937 -0.799687,-2.39906 3.198749,-3.99844 -0.799687,-3.19875 -1.599375,-1.59937 1.599375,-1.59938 -0.799687,-2.39905 0.799687,-3.19875 3.198748,-2.39906 -2.399061,-3.19875 2.399061,-3.19875 0.799687,-3.99844 -1.599374,-2.39905 h -1.599374 v -1.59938 l -3.198749,-0.79969 -1.599373,-3.99843 h -2.399062 l 0.799687,0.79968 -3.998435,-2.39906 -0.799688,-1.59937 0.799688,-3.19875 -2.399062,-2.39906 0.799687,-0.79969 -2.399061,-1.59938 v -1.59937 l -4.798122,-4.79812 -3.198748,-4.79813 -0.799688,-5.5978 2.399061,-3.99843 v -5.59782 l 2.399062,-3.19875 -3.998435,-7.19718 2.39906,-3.19875 -0.799687,-3.19875 3.198748,-0.79968 0.799687,-2.39907 1.599375,-0.79968 0.799687,-8.79657 -1.599374,-2.39905 -3.998436,-1.59938 -3.998435,-7.99687 -7.197184,-4.79811 v -3.19875 l 2.399061,-3.19875 h 2.399061 l 2.399062,-2.39906 -0.799687,-8.79656 1.599374,-2.39906 1.599374,-0.79969 3.998435,2.39906 0.799687,-0.79968 3.998436,2.39906 3.998436,-5.59781 4.798122,2.39906 5.59781,-4.79812 h 9.596245 l 3.198748,-2.39907 -0.799686,-7.197174 -1.599375,-1.599374 -2.399062,-7.996871 -1.599373,-1.599374 1.599373,-1.599375 -0.799686,-1.599373 3.998436,-3.998436 2.39906,0.799686 2.399062,3.19875 h 1.599374 l 6.397497,2.39906 2.399061,-0.799687 1.599374,-2.399061 2.399062,1.599375 1.599374,-3.198749 h 3.198749 l 1.599373,-1.599374 h 2.399062 l 1.599374,-2.399062 h 2.399062 l 0.799687,1.599375 1.599373,-0.799687 0.799688,3.198748 h 2.399061 l 0.799687,-1.599374 -1.599374,-3.198749 -0.799687,-4.798123 -1.599375,-4.798122 -3.198748,-2.399061 0.799688,-2.399062 1.599373,-0.799686 0.799687,-2.399062 5.59781,1.599375 3.198743,-2.399062 3.19875,0.799687 2.39906,-2.399061 v -2.399062 l 1.59937,-0.799687 v -3.998435 l 1.59938,-2.399061 -0.79969,-1.599375 0.79969,-1.599374 -0.79969,-2.399061 2.39906,-3.998435 v -6.397498 l 4.79813,-6.397496 -1.59938,-2.399062 3.19875,-3.198748 5.59781,1.599375 2.39906,1.599373 3.19875,-0.799687 4.79812,0.799687 4.79812,4.798123 3.19875,0.799687 1.59937,1.599375 3.99844,-0.799687 1.59937,-2.399062 10.39593,3.998435 h 1.59938 l 0.79969,-0.799686 1.59937,0.799686 0.79969,-1.599373 3.99843,4.798122 1.59937,-0.799687 6.3975,5.59781 1.59937,-0.799687 v 1.599374 h 3.19875 l 0.7997,3.198748 2.39905,3.198748 -0.79968,2.399062 3.99843,4.798123 v 2.399061 l 2.39906,0.799687 h 5.59781 v -1.599375 l 2.39906,-4.798122 3.99844,-2.399061 -0.79969,-1.599375 1.59937,-3.198748 -2.39905,-0.799687 0.79968,-1.599375 7.19719,-0.799686 3.99843,-3.998436 3.19875,-1.599374 5.59781,0.799688 1.59937,-3.998437 -0.79968,-3.198748 1.59937,-3.998435 3.19875,0.799687 3.99843,-3.198748 3.99843,-2.399062 3.19875,1.599375 5.59782,-3.998436 5.59781,1.599374 v 1.599374 l -1.59938,1.599375 1.59938,2.399061 -3.19875,3.998435 -1.59938,3.998435 3.99845,3.19875 4.79812,-0.799688 0.79968,0.799688 3.99843,0.799686 2.39907,2.399062 3.19875,-2.399062 3.19875,2.399062 0.79968,-1.599375 3.19875,-0.799687 0.79969,-1.599374 3.19875,0.799688 5.59781,8.796558 3.99843,0.799686 2.39906,-0.799686 1.59938,1.599373 0.79968,1.599375 -1.59938,1.599374 3.99845,4.798123 -2.39907,2.399061 0.79969,3.198748 -2.39907,1.599374 2.39907,3.198748 3.99843,-1.599373 2.39907,2.399061 -3.99844,12.794993 3.99844,3.198749 0.79968,5.597809 3.19875,1.599375 3.99843,-3.198748 0.7997,-4.798123 h 7.19718 l 3.19874,-1.599375 0.7997,-1.599374 6.3975,-1.599374 1.59937,-2.399062 1.59936,-1.599373 2.39907,1.599373 1.59938,2.399062 3.19875,1.599374 5.5978,-1.599374 h 6.3975 l 4.79812,-4.798122 v -2.399062 l 10.39593,-4.798123 1.59938,-2.399061 v -3.198748 l 2.39906,-0.799687 3.99843,-1.599375 2.39906,4.798123 -1.59936,4.798123 -3.19875,1.599374 -1.59938,1.599374 0.79969,9.596245 8.79655,3.198749 v 3.198748 l -1.59938,4.798123 2.39907,2.399061 -1.59937,3.998435 -4.79813,-1.599373 h -3.19874 l -4.79813,2.39906 -3.99843,8.796553 1.59938,1.59937 -2.39907,2.39907 0.79969,5.59781 -1.59937,3.19874 -3.19875,0.79969 -0.7997,-0.79969 -1.59937,1.59938 -3.99843,1.59937 0.79969,5.59781 -2.39907,2.39906 0.7997,7.19719 -3.19875,-0.7997 -0.7997,1.59938 -2.39905,-0.79968 -1.59938,2.39905 h -3.19874 l -1.59938,5.59782 -2.39907,0.79968 v 0.79969 l -1.59937,0.79968 1.59937,1.59938 h -1.59937 l 0.79969,2.39905 6.3975,3.99845 -4.79812,4.79812 v 1.59938 l 1.59937,0.79968 -0.79969,3.99844 0.79969,1.59937 -6.3975,6.39749 -0.79968,3.19875 1.59936,1.59937 1.59938,-1.59937 h 1.59937 l 1.59938,1.59937 0.79969,3.19875 3.19875,1.59938 -0.79969,1.59937 3.99844,3.19875 -2.39907,3.99845 -3.19875,0.79968 -2.39905,2.39905 v 2.39907 h -2.39907 l 1.59937,3.19875 -2.39905,1.59937 -2.39906,7.19718 3.99843,4.79813 -0.79969,1.59937 0.79969,3.19875 7.19718,-0.79969 v 3.19875 l 2.39907,0.79969 0.79968,1.59938 3.19875,1.59937 0.79969,3.19875 h 2.39906 v 9.59623 l 5.5978,3.19875 -4.79811,2.39907 -2.39907,9.59625 3.19875,2.39906 v 3.99844 l 5.59781,-7.19719 0.79969,0.79969 0.79968,-0.79969 v 1.59937 l 5.59782,-2.39905 v -1.59938 h -3.19875 1.59938 l -0.7997,-1.59937 0.7997,0.79968 v -3.99843 2.39905 l 3.19875,2.39907 1.59937,4.79812 2.39906,-0.79969 -1.59938,1.59938 3.19875,2.39906 0.79969,-2.39906 h 5.59781 l 0.79968,1.59937 2.39907,-1.59937 3.19875,-4.79813 2.39905,-1.59937 -2.39905,-2.39906 0.79968,-1.59937 h 0.79969 l -0.79969,-1.59938 1.59937,-1.59937 6.3975,-0.7997 Z"/>
</svg>