<svg xmlns="http://www.w3.org/2000/svg" viewBox="940 1285 115 105">
  <!-- Okayama Prefecture (岡山県) - Honshu mainland only -->
  <!-- Source: github.com/PA4KEV/japan-vector-map, MIT License -->
  <path
    fill="#4a7c59"
    d="m 962.23548,1359.4255 0.46252,-4.8861 -1.56352,-4.2731 -1.32184,-4.1574 -2.62568,-4.8834 -1.43751,-3.4938 2.07722,-6.5552 -6.06313,-8.3141 0.37032,-7.2883 1.73984,-2.7288 -4.53803,-3.9673 2.48724,-5.0193 8.02261,-0.2938 -0.64896,-5.9969 9.09408,-0.2831 -1.75384,-4.044 4.42603,-0.7515 0.36231,-3.4885 2.76398,-5.8177 6.53779,2.1984 6.25042,1.9222 2.07947,4.2325 1.21541,-0.3745 4.92503,-5.0469 5.46996,-3.5497 3.5047,0.191 -0.4443,3.8992 3.9802,0.4296 6.1551,1.9795 0.024,9.0559 2.218,-0.4087 15.0696,-5.377 -1.4215,1.8954 2.1194,5.3463 -4.846,3.2461 -2.7419,5.1271 -2.5068,4.0288 0.9063,2.6239 -1.798,4.4193 2.4302,3.0751 -3.2675,5.009 4.5215,5.5461 0.9866,4.6535 1.9342,0.441 -3.0475,-0.064 -0.446,1.3616 -2.7227,0.554 -2.1414,1.9925 -0.1376,2.3161 -2.9929,2.5223 0.2801,2.052 -1.2005,0.3972 h -3.5753 l -1.2474,1.719 -2.1039,0.6082 -1.8983,-1.242 -0.3158,-4.0097 -1.1737,1.3408 -2.3221,-0.062 -1.8893,1.9162 -1.56578,1.1551 -0.36481,1.6351 1.93939,2.4641 1.4857,1.6744 -1.4042,4.4168 -1.30617,1.0149 -1.77931,-0.5216 -3.37734,1.2735 -2.50666,0.049 -4.30494,1.6466 -1.57111,-1.1932 -1.07542,-2.2975 -0.82019,-2.9187 -0.71305,-4.8194 -1.03955,3.6064 0.0255,-1.0913 -1.88732,2.6529 -4.93725,1.9923 -1.72861,0.1914 -0.86923,1.6491 -4.93608,0.2482 -7.16865,-0.6629 z"
  />
</svg>
