<svg xmlns="http://www.w3.org/2000/svg" width="388" height="433" viewBox="0 0 388.107 432.89">
  <!-- Okayama Prefecture (岡山県) silhouette -->
  <!-- Source: Wikimedia Commons, File:Map_of_Okayama_Prefecture_Ja.svg -->
  <!-- License: CC BY-SA 3.0, Author: Lincun -->
  <path fill="#4a7c59" d="M 0.129501,375.18273 H 1.7288751 L 0.92918808,372.78368 H 2.5285622 v -1.59938 l 2.3990613,-0.79969 -0.7996871,-4.79811 h 1.5993742 l 1.5993742,4.79811 H 8.1263719 L 7.3266848,363.18743 H 8.926059 l -0.7996871,1.59938 1.5993743,-1.59938 -0.7996872,2.39907 1.599374,-1.59938 v 1.59938 h 1.599374 v 0.79968 l 2.399062,2.39907 -1.599374,0.79968 0.799687,4.79812 v 2.39906 l -3.9984358,0.79969 v 2.39906 l 3.1987488,2.39907 3.198748,-3.19875 1.599375,5.5978 v -0.79968 l 1.599373,1.59938 2.399062,-0.7997 v 1.59938 l 2.399061,-2.39906 0.799687,2.39906 0.799688,-1.59938 3.998435,3.99845 v -1.59938 l 3.198748,0.79968 0.799687,-1.59937 2.399062,1.59937 1.599374,2.39907 -0.799688,2.39906 6.397498,-1.59938 3.998435,-3.19875 v -1.59937 h 1.599375 l -0.799688,-4.79813 1.599375,-10.39593 7.197183,-2.39905 -1.599374,-3.19875 -1.599374,-0.79969 1.599374,-1.59938 8.796558,7.19718 2.399062,-4.79811 -1.599375,-1.59938 v -0.79969 l -7.996871,-5.5978 -0.799687,-1.59938 1.599375,-3.19875 -0.799688,-3.19875 h -4.798122 l -4.798123,-1.59937 4.798123,1.59937 3.998435,-1.59937 2.399062,1.59937 h 6.397496 -5.59781 l -0.799686,7.19718 9.596244,5.59782 0.799687,-9.59625 -0.799687,-4.79812 v -2.39906 l 0.799687,3.19874 3.19875,-7.19718 -0.799688,-3.19875 -2.399062,0.79969 v -2.39906 h 1.599375 l -1.599375,-3.19875 2.399062,-4.79813 -1.599374,-3.99843 -0.799688,-5.5978 -6.397496,-4.79813 -0.799687,-6.3975 H 58.50666 l -4.798123,-3.19874 -1.599374,-6.3975 -2.399061,-2.39906 v -3.19875 l 2.399061,-2.39907 -1.599375,-1.59937 v -3.19875 l 3.198749,-3.19875 1.599374,-7.19718 -6.397496,-3.19875 1.599373,-2.39905 -3.998435,-3.19875 -0.799688,-7.1972 -0.799686,-3.99843 -2.399062,-1.59937 -0.799687,-2.39906 3.198749,-3.99844 -0.799687,-3.19875 -1.599375,-1.59937 1.599375,-1.59938 -0.799687,-2.39905 0.799687,-3.19875 3.198748,-2.39906 -2.399061,-3.19875 2.399061,-3.19875 0.799687,-3.99844 -1.599374,-2.39905 h -1.599374 v -1.59938 l -3.198749,-0.79969 -1.599373,-3.99843 h -2.399062 l 0.799687,0.79968 -3.998435,-2.39906 -0.799688,-1.59937 0.799688,-3.19875 -2.399062,-2.39906 0.799687,-0.79969 -2.399061,-1.59938 v -1.59937 l -4.798122,-4.79812 -3.198748,-4.79813 -0.799688,-5.5978 2.399061,-3.99843 v -5.59782 l 2.399062,-3.19875 -3.998435,-7.19718 2.39906,-3.19875 -0.799687,-3.19875 3.198748,-0.79968 0.799687,-2.39907 1.599375,-0.79968 0.799687,-8.79657 -1.599374,-2.39905 -3.998436,-1.59938 -3.998435,-7.99687 -7.197184,-4.79811 v -3.19875 l 2.399061,-3.19875 h 2.399061 l 2.399062,-2.39906 -0.799687,-8.79656 1.599374,-2.39906 1.599374,-0.79969 3.998435,2.39906 0.799687,-0.79968 3.998436,2.39906 3.998436,-5.59781 4.798122,2.39906 5.59781,-4.79812 h 9.596245 l 3.198748,-2.39907 -0.799686,-7.197174 -1.599375,-1.599374 -2.399062,-7.996871 -1.599373,-1.599374 1.599373,-1.599375 -0.799686,-1.599373 3.998436,-3.998436 2.39906,0.799686 2.399062,3.19875 h 1.599374 l 6.397497,2.39906 2.399061,-0.799687 1.599374,-2.399061 2.399062,1.599375 1.599374,-3.198749 h 3.198749 l 1.599373,-1.599374 h 2.399062 l 1.599374,-2.399062 h 2.399062 l 0.799687,1.599375 1.599373,-0.799687 0.799688,3.198748 h 2.399061 l 0.799687,-1.599374 -1.599374,-3.198749 -0.799687,-4.798123 -1.599375,-4.798122 -3.198748,-2.399061 0.799688,-2.399062 1.599373,-0.799686 0.799687,-2.399062 5.59781,1.599375 3.198743,-2.399062 3.19875,0.799687 2.39906,-2.399061 v -2.399062 l 1.59937,-0.799687 v -3.998435 l 1.59938,-2.399061 -0.79969,-1.599375 0.79969,-1.599374 -0.79969,-2.399061 2.39906,-3.998435 v -6.397498 l 4.79813,-6.397496 -1.59938,-2.399062 3.19875,-3.198748 5.59781,1.599375 2.39906,1.599373 3.19875,-0.799687 4.79812,0.799687 4.79812,4.798123 3.19875,0.799687 1.59937,1.599375 3.99844,-0.799687 1.59937,-2.399062 10.39593,3.998435 h 1.59938 l 0.79969,-0.799686 1.59937,0.799686 0.79969,-1.599373 3.99843,4.798122 1.59937,-0.799687 6.3975,5.59781 1.59937,-0.799687 v 1.599374 h 3.19875 l 0.7997,3.198748 2.39905,3.198748 -0.79968,2.399062 3.99843,4.798123 v 2.399061 l 2.39906,0.799687 h 5.59781 v -1.599375 l 2.39906,-4.798122 3.99844,-2.399061 -0.79969,-1.599375 1.59937,-3.198748 -2.39905,-0.799687 0.79968,-1.599375 7.19719,-0.799686 3.99843,-3.998436 3.19875,-1.599374 5.59781,0.799688 1.59937,-3.998437 -0.79968,-3.198748 1.59937,-3.998435 3.19875,0.799687 3.99843,-3.198748 3.99843,-2.399062 3.19875,1.599375 5.59782,-3.998436 5.59781,1.599374 v 1.599374 l -1.59938,1.599375 1.59938,2.399061 -3.19875,3.998435 -1.59938,3.998435 3.99845,3.19875 4.79812,-0.799688 0.79968,0.799688 3.99843,0.799686 2.39907,2.399062 3.19875,-2.399062 3.19875,2.399062 0.79968,-1.599375 3.19875,-0.799687 0.79969,-1.599374 3.19875,0.799688 5.59781,8.796558 3.99843,0.799686 2.39906,-0.799686 1.59938,1.599373 0.79968,1.599375 -1.59938,1.599374 3.99845,4.798123 -2.39907,2.399061 0.79969,3.198748 -2.39907,1.599374 2.39907,3.198748 3.99843,-1.599373 2.39907,2.399061 -3.99844,12.794993 3.99844,3.198749 0.79968,5.597809 3.19875,1.599375 3.99843,-3.198748 0.7997,-4.798123 h 7.19718 l 3.19874,-1.599375 0.7997,-1.599374 6.3975,-1.599374 1.59937,-2.399062 1.59936,-1.599373 2.39907,1.599373 1.59938,2.399062 3.19875,1.599374 5.5978,-1.599374 h 6.3975 l 4.79812,-4.798122 v -2.399062 l 10.39593,-4.798123 1.59938,-2.399061 v -3.198748 l 2.39906,-0.799687 3.99843,-1.599375 2.39906,4.798123 -1.59936,4.798123 -3.19875,1.599374 -1.59938,1.599374 0.79969,9.596245 8.79655,3.198749 v 3.198748 l -1.59938,4.798123 2.39907,2.399061 -1.59937,3.998435 -4.79813,-1.599373 h -3.19874 l -4.79813,2.39906 -3.99843,8.796553 1.59938,1.59937 -2.39907,2.39907 0.79969,5.59781 -1.59937,3.19874 -3.19875,0.79969 -0.7997,-0.79969 -1.59937,1.59938 -3.99843,1.59937 0.79969,5.59781 -2.39907,2.39906 0.7997,7.19719 -3.19875,-0.7997 -0.7997,1.59938 -2.39905,-0.79968 -1.59938,2.39905 h -3.19874 l -1.59938,5.59782 -2.39907,0.79968 v 0.79969 l -1.59937,0.79968 1.59937,1.59938 h -1.59937 l 0.79969,2.39905 6.3975,3.99845 -4.79812,4.79812 v 1.59938 l 1.59937,0.79968 -0.79969,3.99844 0.79969,1.59937 -6.3975,6.39749 -0.79968,3.19875 1.59936,1.59937 1.59938,-1.59937 h 1.59937 l 1.59938,1.59937 0.79969,3.19875 3.19875,1.59938 -0.79969,1.59937 3.99844,3.19875 -2.39907,3.99845 -3.19875,0.79968 -2.39905,2.39905 v 2.39907 h -2.39907 l 1.59937,3.19875 -2.39905,1.59937 -2.39906,7.19718 3.99843,4.79813 -0.79969,1.59937 0.79969,3.19875 7.19718,-0.79969 v 3.19875 l 2.39907,0.79969 0.79968,1.59938 3.19875,1.59937 0.79969,3.19875 h 2.39906 v 9.59623 l 5.5978,3.19875 -4.79811,2.39907 -2.39907,9.59625 3.19875,2.39906 v 3.99844 l 5.59781,-7.19719 0.79969,0.79969 0.79968,-0.79969 v 1.59937 l 5.59782,-2.39905 v -1.59938 h -3.19875 1.59938 l -0.7997,-1.59937 0.7997,0.79968 v -3.99843 2.39905 l 3.19875,2.39907 1.59937,4.79812 2.39906,-0.79969 -1.59938,1.59938 3.19875,2.39906 0.79969,-2.39906 h 5.59781 l 0.79968,1.59937 2.39907,-1.59937 3.19875,-4.79813 2.39905,-1.59937 -2.39905,-2.39906 0.79968,-1.59937 h 0.79969 l -0.79969,-1.59938 1.59937,-1.59937 6.3975,-0.7997 Z m 387.848229,-136.74648 -1.59937,3.19875 0.79969,1.59937 0.79968,-0.79969 z M 0.129501,382.37993 v -0.7997 l 1.5993741,1.59938 0.7996871,-0.79968 0.7996872,-2.39907 -1.5993743,-3.19875 H 0.129501 Z m 110.356819,50.38028 -1.59938,-1.59938 -4.79812,1.59938 z m 254.30049,0 z m -15.19406,0 -7.19718,-6.3975 -3.99844,1.59937 -2.39906,-0.79968 -3.19874,-1.59937 -0.7997,-2.39907 -0.79968,-1.59937 -1.59937,3.19875 -2.39907,-0.79969 -3.19874,-4.79812 h -0.79969 v -3.99844 l 5.5978,-4.79811 -0.79968,-3.99845 1.59938,-0.79968 -0.7997,-1.59937 h -2.39905 v -3.99845 l -2.39906,-1.59937 -2.39907,3.99844 -2.39905,1.59938 -3.19875,-3.99845 -1.59938,-0.79968 -0.79969,-4.79812 -2.39906,-3.19875 -1.59937,1.59938 2.39906,5.5978 v 1.59937 l -3.19875,1.59938 -0.79969,-1.59938 -2.39906,1.59938 -0.79968,-2.39906 -2.39907,-1.59937 v 2.39905 l 1.59937,0.7997 -0.79968,4.79812 1.59938,0.79968 -3.19875,-0.79968 v 3.19875 l -3.99843,-0.79969 -3.99845,-6.3975 0.7997,-0.79968 0.79968,-2.39907 -0.79968,-4.79812 2.39905,-3.99843 v -3.19875 l -1.59937,-2.39906 -7.19718,-3.99844 -3.19875,1.59937 -2.39907,-0.79968 0.79969,2.39906 h 1.59938 l 0.79968,1.59937 h -1.59937 v 3.19875 l -2.39906,0.7997 0.79968,5.5978 1.59938,0.79968 -2.39906,0.79969 -3.99843,-6.39749 -3.99844,-3.99843 v 7.99686 l -1.59938,4.79812 -2.39905,0.79969 v -3.99844 l -1.59938,-0.79968 v 3.99843 h -1.59937 v 1.59937 h -0.7997 l 1.59938,-5.5978 h -2.39906 v 1.59937 l -2.39907,0.79969 2.39907,0.79969 -1.59937,2.39905 v -1.59937 l -0.7997,1.59937 -0.79968,-2.39905 -0.79969,0.79968 -0.79968,-2.39906 -1.59938,2.39906 h -3.19875 l 1.59938,0.79969 -1.59938,0.79968 h -1.59937 l 1.59937,-2.39905 -3.19874,-0.79969 -2.39906,1.59937 -1.59937,-1.59937 h 1.59937 l -2.39907,-0.79969 -4.79812,1.59938 -5.59781,-7.19718 -3.19875,3.99843 -1.59937,-5.5978 -3.99843,-1.59938 -2.39907,3.19875 -0.79968,-3.19875 -3.19875,-3.19875 -2.39907,3.99843 1.59938,2.39907 -1.59938,0.79968 -3.19875,-3.99843 -0.79968,2.39906 h -1.59937 l -1.59938,-3.19875 h -1.59937 l -1.59938,3.19875 2.39906,7.99687 -3.99843,3.99843 0.79969,0.79969 -2.39907,-1.59937 -4.79812,5.5978 0.79969,1.59938 -2.39907,-1.59938 v 1.59938 l -0.79968,-0.79968 -0.79969,1.59937 v 1.59938 l -0.79968,-1.59938 h -1.59938 l -0.79969,-0.79969 -1.59937,1.59937 -0.79968,-3.19875 h -1.59938 l 3.99843,-1.59937 -2.39905,-0.79968 3.99843,-0.7997 3.19874,-2.39905 0.7997,-3.19875 -1.59938,-2.39907 h -1.59937 l -0.79969,3.19875 v -0.79968 l -5.59781,4.79812 v -2.39907 l 3.99843,-3.19874 v -1.59938 l -5.5978,3.19875 -0.79968,1.59937 -0.7997,-2.39905 0.7997,6.3975 v 4.79812 l 1.59936,-0.79969 0.79969,1.59937 -0.79969,1.59938 v -1.59938 l -2.39906,0.7997 v 0.79968 l -3.99843,3.19875 -3.19875,1.59937 -1.59937,-1.59937 -0.7997,0.79968 2.39907,2.39907 -1.59937,0.79968 0.79968,1.59937 -1.59938,0.7997 -0.79968,-3.19875 -3.99844,2.39905 0.79969,2.39907 -0.79969,-2.39907 -2.39906,0.7997 2.39906,-0.7997 -1.59938,-2.39905 -0.79968,0.79968 0.79968,-0.79968 -0.79968,0.79968 0.79968,-1.59938 -0.79968,0.7997 -1.59937,0.79968 2.39905,3.99844 -1.59937,2.39906 -0.79968,-1.59938 -3.19875,3.19875 -1.59937,-1.59937 h -0.79969 l 0.79969,-0.79969 -1.59938,1.59938 2.39907,1.59937 -2.39907,0.79968 0.79969,1.59938 -2.39906,-3.99843 -1.59938,0.79968 v 3.19875 l 2.39907,2.39907 -0.79969,0.79968 z m -223.91238,0 2.39906,-2.39906 2.39906,-1.59937 3.19875,2.39905 0.79968,-0.79968 v -2.39907 l 0.79969,-2.39905 h -3.19874 l -0.7997,2.39905 -2.39905,0.7997 -2.39906,-2.39907 0.79968,-2.39906 -2.39906,-0.79969 -0.79968,2.39907 2.39906,2.39905 -3.19875,3.19875 v 1.59938 z M 0.129501,428.76178 1.7288751,426.36271 0.129501,422.36428 Z m 382.250429,-144.74337 1.59937,-0.79969 v -1.59937 l -1.59937,0.79968 z m -86.36621,50.38029 0.79968,-1.59937 -3.19875,1.59937 z m -60.77622,5.5978 1.59937,-0.79968 -0.79969,-2.39906 -1.59938,0.79969 z m 0.79968,1.59938 1.59937,-0.79968 v -0.7997 l -1.59937,0.7997 z m 11.19562,0.79969 0.7997,3.99843 3.19874,3.19875 0.79969,-11.19562 -2.39906,4.79812 z m 60.77622,5.59781 0.79969,0.79968 1.59937,-0.79968 h 1.59938 l 0.79969,3.19875 3.99843,-2.39907 1.59937,1.59937 -0.79968,2.39907 h 1.59938 v 2.39906 l 1.59937,0.79969 -1.59937,6.3975 -3.99845,2.39906 4.79813,0.79969 v 2.39905 l -1.59938,-0.79968 v 1.59938 l -2.39905,0.79968 2.39905,4.79812 2.39907,-0.79969 3.19875,-3.19875 -0.79969,-2.39906 0.79969,-3.19874 3.99843,-3.99843 -0.79969,-2.39907 2.39907,-4.79813 4.79812,-1.59937 3.99843,-3.19875 5.59782,1.59937 1.59937,1.59938 -0.79969,4.79812 -2.39906,-1.59937 -2.39907,1.59937 -1.59937,-1.59937 -3.99843,0.79969 1.59937,4.79813 -1.59937,1.59937 -1.59937,-1.59937 0.79968,1.59937 0.79969,0.79968 4.79812,-3.19875 1.59938,-2.39905 3.19875,0.79968 1.59937,-0.79968 3.99843,3.99843 0.79968,3.99844 1.59938,0.79968 0.79969,-1.59937 -1.59937,-3.99843 3.99843,-3.99845 1.59937,-6.3975 -3.19875,-2.39905 v -2.39906 l 2.39907,-1.59937 -1.59937,-3.99845 3.19875,-3.19874 -0.7997,-4.79813 1.59938,-3.99843 -1.59938,-1.59937 2.39907,-1.59938 -3.19875,1.59938 -2.39907,-0.7997 v -1.59936 l 3.19875,-4.79812 h 2.39907 l 1.59938,-1.59938 h -3.19875 l -3.19875,1.59938 v -1.59938 l 1.59937,-0.79969 h -6.3975 l -5.5978,1.59937 -3.19875,3.99845 -2.39907,0.79968 h -7.99687 l -0.79968,-0.79968 v -1.59938 h -1.59938 l -7.99687,8.79656 -2.39906,1.59937 -2.39907,-1.59937 -4.79812,3.19875 h -4.79812 l -1.59938,2.39905 -3.19873,-0.79968 -1.59938,-3.99844 -2.39907,3.19875 0.7997,2.39906 -3.99845,3.19875 3.19875,-0.79969 v 3.19875 l 2.39907,2.39907 z m -67.17372,1.59937 1.59938,-1.59937 V 346.394 Z m 40.78405,2.39906 2.39906,-1.59938 0.79969,-2.39905 -5.59782,1.59937 v 1.59938 z m -51.17998,1.59937 0.7997,-0.79968 -1.59938,-3.19875 -0.79969,1.59938 z m 72.77153,0.7997 1.59938,-2.39907 -1.59938,0.79969 z m -32.78717,2.39905 6.3975,-7.19718 0.79969,-5.5978 -3.19875,0.79968 -3.99844,-3.19875 -1.59938,0.79969 h -2.39905 l -3.99845,3.99843 -3.99843,-0.79968 -0.79969,2.39906 h -1.59936 l 0.79968,1.59937 h 0.79968 l 0.79969,1.59938 2.39906,0.79968 4.79812,0.79969 z m -28.78873,6.3975 0.79968,-0.79968 2.39907,0.79968 3.99843,-3.99843 -3.99843,0.79968 -0.7997,-3.19875 -1.59937,-1.59937 v 0.79969 H 241.635 l -2.39907,-5.59782 -3.19875,1.59938 -1.59938,-2.39906 -0.79968,3.19875 0.79968,3.99843 2.39907,1.59938 -0.79969,1.59937 z m 5.5978,3.19875 1.59938,-2.39906 h -3.19875 z m -232.708931,3.19875 -0.799687,-1.59938 -0.799687,1.59938 z m 204.719881,3.19875 0.7997,0.79968 0.79968,-0.79968 z m 43.1831,0.79968 2.39907,-2.39906 0.79968,-2.39905 -1.59937,-2.39907 -2.39906,3.99843 z m 21.59156,0 h 0.79969 v -2.39906 z m 3.99844,2.39907 v -0.7997 l -0.7997,0.7997 z m -113.55558,3.19875 3.19875,-0.7997 -1.59937,-1.59937 z m 102.35996,0.79968 3.19875,-1.59938 -2.39906,-3.99843 v 3.19875 l -1.59938,1.59938 z m -85.56653,4.79812 v -2.39905 l -0.79968,-0.7997 z m -52.77934,1.59938 3.99843,-4.79813 v -1.59937 h -2.39905 l 1.59937,-3.99843 -5.59781,1.59937 -2.39906,-0.79969 3.19875,3.99844 v 2.39906 z m 118.35369,1.59937 5.5978,-5.5978 -0.79968,-6.3975 -5.5978,9.59625 z m -203.120513,0 1.599374,-2.39905 h -1.599374 v -1.59938 h -2.399062 l -0.799687,1.59938 z m 159.937413,1.59938 1.59937,-1.59938 -2.39907,0.7997 z m -79.96871,0.79969 0.79968,-1.59937 -1.59937,-2.39907 -1.59938,1.59937 z m 85.56651,0 h 1.59938 l -1.59938,-1.59937 h -0.79968 z m -206.319255,3.99843 3.198748,-7.19718 -3.198748,0.79968 -3.1987488,-2.39905 -0.7996872,3.19875 0.7996872,1.59937 -0.7996872,2.39906 z m 137.546175,3.99843 1.59937,-0.79968 0.79968,-3.19875 h 3.99845 l 2.39905,-3.19875 -3.99843,-8.79655 v -0.7997 l -1.59937,-1.59937 h -1.59938 v 4.79812 l -0.79969,0.7997 -2.39906,-0.7997 v 3.19875 h -2.39907 l -0.79968,4.79813 -1.59937,1.59937 z m -127.949929,3.19875 6.397496,-3.99843 5.59781,-1.59938 0.799687,-5.5978 -1.599375,1.59937 -1.599374,-0.79969 -1.599374,3.99843 v -2.39905 l -1.599374,-0.79969 -0.799688,-2.39906 -7.197183,3.19875 -2.399062,3.19874 2.399062,4.79813 z m 108.757429,3.99844 0.7997,-0.79969 -1.59938,-0.79968 -0.79968,0.79968 z m -120.752737,0 7.197185,-2.39907 0.799686,-7.19718 h -2.399061 l -5.59781,3.19875 v 1.59938 h 0.799687 v 2.39905 z m 115.154937,0.79968 2.39906,-3.19875 -3.99843,-5.5978 -0.79969,0.79968 0.79969,7.19719 z m 69.57277,2.39907 1.59938,-0.79969 v -1.59938 l -0.79969,0.7997 z m -121.552426,5.59781 0.799687,-0.79968 1.599375,0.79968 v -2.39906 h -3.998435 z m 68.773076,1.59937 1.59938,-1.59937 -0.79969,-2.39906 -5.59781,-3.19875 2.39907,6.39749 z m 31.98748,2.39906 2.39907,-0.79968 -1.59937,-3.19875 -3.19875,1.59937 z m -31.18779,12.79499 0.79969,-1.59937 -0.79969,-0.79968 -2.39906,-0.7997 -0.79968,0.7997 v 1.59937 z m -74.370889,-26.38967 0.799688,-1.59938 1.599374,0.7997 v -1.59938 h -1.599374 l -2.399061,-3.19875 -2.399062,-0.79969 -1.599373,2.39907 v 2.39905 z m 105.558679,-7.99687 2.39907,-1.59938 -0.79969,-1.59937 -1.59938,-0.79968 -1.59937,3.19874 z m -4.79812,-4.79812 2.39907,-3.19874 4.79812,-3.19875 -0.79969,-0.7997 1.59937,1.59938 v -1.59938 h 1.59938 l -1.59938,-3.19875 -3.99843,-2.39905 -4.79812,4.79812 -2.39907,-3.19875 v 3.99843 l 1.59938,3.19875 -1.59938,3.19875 z M 4.9276235,390.3768 v -1.59937 l -1.5993741,-1.59938 -0.7996872,2.39906 z m 182.3286465,-3.99844 1.59938,-2.39906 -1.59938,-2.39907 -2.39905,1.59938 0.79968,2.39907 z M 7.3266848,383.9793 l 2.3990614,-3.19875 -2.3990614,-1.59937 -1.5993742,0.79968 -1.5993742,-0.79968 0.7996871,3.99843 z m 176.7308352,-5.59782 0.7997,-1.59937 -1.59938,0.79969 z m -9.59625,-3.19875 h 1.59938 l -1.59938,-0.79968 h -1.59937 z m 8.79657,0 0.79968,-3.19875 -0.79968,-2.39905 h -3.19875 z m 49.5806,-15.99373 h 1.59936 l -0.79968,-3.19875 -1.59937,1.59938 -1.59938,-0.7997 0.7997,2.39907 z m 59.97653,-2.39907 4.79813,-1.59937 1.59937,-3.99843 h 3.19874 l 0.79969,-1.59938 h 1.59938 l -0.7997,-1.59937 0.7997,0.79968 v -0.79968 L 303.2109,346.394 h -2.39905 l -3.19875,-2.39905 h -3.19875 l -4.79813,8.79655 2.39906,0.79968 z m -47.98122,0 3.19875,-3.99843 -2.39907,0.79968 v -1.59937 l -1.59938,0.79969 z m -0.7997,-3.99843 0.7997,-2.39907 H 241.635 Z m -7.99687,-1.59937 1.59937,-1.59938 -1.59937,-0.79969 z m 2.39907,-4.79813 1.59937,-2.39905 -1.59937,0.79968 -0.7997,-1.59938 -0.79968,1.59938 z m 53.57903,-11.19562 0.79969,-1.59937 h -2.39907 z m 90.36465,-95.16276 0.79968,-1.59937 -0.79968,0.79968 z"/>
</svg>